<svg width="224" height="64" viewBox="0 0 224 64" fill="none" xmlns="http://www.w3.org/2000/svg">
<g id="Frame 79">
<g id="Group 5">
<path id="Vector" d="M55.1437 23.3328C53.3577 22.5554 52.4432 24.2753 52.4432 24.2753L47.9764 31.037L47.0783 30.5579L50.2851 19.5991C50.2851 19.5991 50.7084 17.7786 48.8549 17.4252C46.7944 17.0086 46.1844 18.5347 46.1844 18.5347L43.1709 29.2161L42.1672 28.9603L43.6336 16.1619C43.6336 16.1619 43.7584 14.1675 41.6862 14.0093C39.6126 13.8493 39.3559 15.8094 39.3559 15.8094L37.9486 28.6091H37.0505L36.0041 16.745C36.0041 16.745 35.5297 14.8127 33.7175 14.8127C31.9071 14.8127 31.817 17.0819 31.817 17.0819L32.2778 31.676L31.817 32.1434L28.3835 29.647C28.3835 29.647 26.7703 28.4591 25.4794 29.6735C24.3133 30.7699 25.6413 32.4425 25.6413 32.4425L32.4181 42.122L47.404 42.9492L56.0874 25.6124C56.0874 25.6124 56.7687 24.0737 55.1437 23.3328Z" fill="#947E76"/>
<path id="Vector_2" d="M29.4734 47.6195V49.9304H48.408V44.821L31.0872 43.7974L29.4734 47.6195Z" fill="#947E76"/>
<path id="text-0" d="M76.5121 30.7957C73.9465 30.7957 71.3995 31.4809 68.8709 32.8514V49.6415H65.664V19.2438L68.7917 18.9585V30.5835C70.122 29.5349 71.8508 28.7789 73.9782 28.3155C74.8281 28.1253 75.8337 28.0302 76.9951 28.0302C78.1511 28.0302 79.1673 28.1522 80.0436 28.396C80.9199 28.6399 81.6167 29.0301 82.134 29.5666C83.0631 30.5323 83.5277 32.2881 83.5277 34.8341V49.6415H80.2812V35.3681C80.2812 33.6562 80.099 32.5515 79.7348 32.054C79.3758 31.5614 78.9482 31.2297 78.452 31.059C77.9558 30.8834 77.3092 30.7957 76.5121 30.7957ZM94.3124 23.2968C93.4466 23.2968 92.8923 23.1846 92.6495 22.9603C92.2642 22.5896 92.0715 22.0799 92.0715 21.4312C92.0715 20.7826 92.1111 20.3168 92.1903 20.0339C92.2747 19.7559 92.4014 19.5389 92.5703 19.3828C92.8818 19.0999 93.3569 18.9585 93.9956 18.9585C94.6291 18.9585 95.0857 18.9877 95.3655 19.0462C95.64 19.1048 95.8696 19.217 96.0544 19.3828C96.3606 19.6705 96.5136 20.1388 96.5136 20.7874C96.5136 21.4361 96.4793 21.8995 96.4107 22.1775C96.3368 22.4604 96.218 22.6847 96.0544 22.8505C95.7271 23.1481 95.1464 23.2968 94.3124 23.2968ZM92.7841 49.6415L92.7445 28.3887H95.9118V49.6415H92.7841ZM115.628 47.4248H115.803C117.904 47.4248 120.018 47.0492 122.145 46.2981L123 48.7636C122.018 49.2172 120.839 49.5367 119.461 49.722C118.083 49.9073 116.864 50 115.803 50H115.533C110.946 50 107.874 48.7856 106.316 46.3567C105.361 44.8788 104.78 42.8889 104.574 40.3869C104.485 39.187 104.44 37.8726 104.44 36.4436C104.44 35.0145 104.482 33.6537 104.567 32.3613C104.651 31.0688 104.82 29.8836 105.073 28.8057C105.332 27.7278 105.707 26.767 106.198 25.9232C106.689 25.0746 107.346 24.3601 108.169 23.7797C109.843 22.5652 112.279 21.958 115.478 21.958C117.542 21.958 119.202 22.0799 120.459 22.3238C121.715 22.5677 122.562 22.7676 123 22.9237L122.129 25.7403C119.617 24.9307 117.468 24.5259 115.684 24.5259C113.894 24.5259 112.519 24.7259 111.558 25.1258C110.603 25.5257 109.853 26.1842 109.31 27.1011C108.37 28.6716 107.9 31.6662 107.9 36.0851V37.4093C107.9 41.038 108.41 43.5742 109.428 45.0178C110.563 46.6225 112.63 47.4248 115.628 47.4248ZM136.548 30.9785C134.896 30.9785 133.215 31.7394 131.505 33.2611V49.6415H128.29V28.3887H131.117L131.425 31.2053C132.032 30.3372 132.687 29.6592 133.389 29.1715C134.091 28.6838 134.667 28.3863 135.115 28.279C135.759 28.1131 136.372 28.0302 136.952 28.0302C137.533 28.0302 138.261 28.1375 139.138 28.3521L138.845 31.1907C138.19 31.0493 137.425 30.9785 136.548 30.9785ZM162.41 35.4413V42.1061C162.41 44.4765 162.534 46.9395 162.782 49.4952L159.915 49.7147L159.432 47.2273C157.796 48.4417 155.632 49.2879 152.939 49.7659C152.063 49.922 151.282 50 150.596 50C149.915 50 149.313 49.9707 148.79 49.9122C148.268 49.8488 147.766 49.7317 147.286 49.561C146.8 49.3903 146.351 49.1489 145.94 48.8368C145.528 48.5295 145.166 48.1198 144.855 47.6077C144.2 46.5249 143.873 45.2227 143.873 43.701C143.873 42.1841 143.992 41.0063 144.229 40.1674C144.467 39.3285 144.863 38.6286 145.417 38.0677C146.515 36.9606 148.357 36.407 150.944 36.407C153.536 36.407 156.302 36.8581 159.242 37.7604V35.4413C159.242 32.8563 158.089 31.3273 155.782 30.8542C155.032 30.6981 154.175 30.6201 153.209 30.6201C151.007 30.6201 148.719 31.0249 146.343 31.8345L145.631 29.2593C146.285 28.8545 147.961 28.4911 150.659 28.1692C151.509 28.0766 152.53 28.0302 153.723 28.0302C154.916 28.0302 156.086 28.1619 157.231 28.4253C158.377 28.6838 159.329 29.1105 160.09 29.7056C161.636 30.8859 162.41 32.7978 162.41 35.4413ZM159.163 39.9991C156.149 39.2968 153.364 38.9456 150.809 38.9456C149.236 38.9456 148.194 39.3602 147.682 40.1893C147.333 40.7746 147.159 41.6379 147.159 42.7792C147.159 43.9253 147.225 44.7545 147.357 45.2666C147.494 45.7787 147.719 46.2006 148.03 46.5322C148.632 47.1663 149.63 47.4833 151.023 47.4833C153.203 47.4833 155.362 46.9639 157.5 45.925C158.16 45.6178 158.754 45.2739 159.282 44.8935C159.203 43.6059 159.163 41.9744 159.163 39.9991ZM178.143 21.4898C177.151 21.4898 176.399 21.6897 175.887 22.0897C175.369 22.4896 175.111 23.2749 175.111 24.4454C175.111 25.6208 175.348 26.9353 175.823 28.3887H181.295V30.8688H175.784V49.6415H172.672V30.8688H168.823V28.674L172.632 28.3887C172.468 28.0668 172.307 27.3694 172.149 26.2963C171.996 25.2233 171.919 24.4552 171.919 23.9918C171.919 20.6119 174.06 18.9219 178.341 18.9219C179.888 18.9219 181.35 19.0755 182.728 19.3828L182.15 22.0458C180.471 21.6751 179.136 21.4898 178.143 21.4898ZM197.899 46.2981L199 48.6246C196.899 49.5415 194.959 50 193.18 50C189.96 50 188.131 48.7246 187.693 46.1738C187.587 45.569 187.534 44.6886 187.534 43.5327V30.8688H184.755V28.674L187.534 28.3887L188.041 23.5309H190.725V28.3887H197.432V30.8688H190.725V43.4815C190.725 44.9447 190.842 45.8787 191.074 46.2835C191.501 47.02 192.351 47.3882 193.624 47.3882C194.901 47.3882 196.326 47.0248 197.899 46.2981Z" fill="#947E76"/>
</g>
</g>
</svg>
