<svg width="48" height="53" viewBox="0 0 48 53" fill="none" xmlns="http://www.w3.org/2000/svg">
<g id="Group 15">
<path id="Vector" d="M42.3062 23.4809C40.6595 21.8191 38.9093 23.5225 38.9093 23.5225L31.063 29.8661L30.2726 28.9241L38.5195 17.0073C38.5195 17.0073 39.7682 14.9833 37.865 13.8054C35.7595 12.4673 34.4299 14.0605 34.4299 14.0605L26.5161 25.7211L25.513 25.0055L32.6184 10.1642C32.6184 10.1642 33.6107 7.8095 31.3816 6.77827C29.1516 5.74438 28.0279 8.00431 28.0279 8.00431L20.9874 22.8711L19.9919 22.5069L23.912 7.77339C23.912 7.77339 24.2135 5.25044 22.2048 4.51549C20.1981 3.7813 19.1266 6.48162 19.1266 6.48162L13.3885 24.2703L12.6776 24.6471L9.94071 20.2438C9.94071 20.2438 8.66115 18.1568 6.71031 19.098C4.94832 19.9475 5.70409 22.5034 5.70409 22.5034L9.07127 36.926L25.3279 44.0012L42.3761 26.613C42.3761 26.613 43.7902 25.0336 42.3062 23.4809Z" fill="#D5C0AE"/>
<path id="Vector_2" d="M3.4533 42.3622L2.46386 45.1493L23.4516 52.8281L25.6393 46.6658L6.8786 38.4068L3.4533 42.3622Z" fill="#D5C0AE"/>
</g>
</svg>
