<svg width="100" height="101" viewBox="0 0 100 101" fill="none" xmlns="http://www.w3.org/2000/svg">
<g id="Frame 95">
<rect id="Rectangle 40" y="0.828125" width="100" height="100" fill="#947E76"/>
<g id="Group 5">
<path id="Vector" d="M74.2238 36.1357C71.3012 34.7722 69.8046 37.7889 69.8046 37.7889L62.4949 49.6487L61.0252 48.8085L66.273 29.5867C66.273 29.5867 66.9656 26.3936 63.9324 25.7738C60.5606 25.043 59.5623 27.7198 59.5623 27.7198L54.6309 46.4549L52.9883 46.0062L55.388 23.5579C55.388 23.5579 55.5923 20.0599 52.2012 19.7823C48.8079 19.5017 48.3879 22.9397 48.3879 22.9397L46.0849 45.3903H44.6152L42.9028 24.5807C42.9028 24.5807 42.1264 21.1914 39.1608 21.1914C36.1982 21.1914 36.0508 25.1716 36.0508 25.1716L36.8049 50.7696L36.0508 51.5894L30.4321 47.2108C30.4321 47.2108 27.792 45.1271 25.6796 47.2572C23.7713 49.1803 25.9445 52.1141 25.9445 52.1141L37.0345 69.0918L61.5581 70.5427L75.7681 40.1341C75.7681 40.1341 76.8831 37.4352 74.2238 36.1357Z" fill="white"/>
<path id="Vector_2" d="M32.2156 78.7344V82.7875H63.2011V73.8257L34.8564 72.0303L32.2156 78.7344Z" fill="white"/>
</g>
</g>
</svg>
