<svg width="32" height="33" viewBox="0 0 32 33" fill="none" xmlns="http://www.w3.org/2000/svg">
<g id="Icon/instagram">
<path id="Vector" d="M16.003 9.99266C12.2194 9.99266 9.16752 13.0445 9.16752 16.8281C9.16752 20.6117 12.2194 23.6636 16.003 23.6636C19.7866 23.6636 22.8385 20.6117 22.8385 16.8281C22.8385 13.0445 19.7866 9.99266 16.003 9.99266ZM16.003 21.2721C13.5579 21.2721 11.559 19.2791 11.559 16.8281C11.559 14.3771 13.552 12.3842 16.003 12.3842C18.454 12.3842 20.4469 14.3771 20.4469 16.8281C20.4469 19.2791 18.4481 21.2721 16.003 21.2721ZM24.7124 9.71305C24.7124 10.5995 23.9985 11.3074 23.1181 11.3074C22.2317 11.3074 21.5237 10.5935 21.5237 9.71305C21.5237 8.83259 22.2376 8.11871 23.1181 8.11871C23.9985 8.11871 24.7124 8.83259 24.7124 9.71305ZM29.2397 11.3312C29.1385 9.19549 28.6507 7.30368 27.0861 5.74503C25.5274 4.18638 23.6356 3.69855 21.4999 3.59147C19.2988 3.46654 12.7013 3.46654 10.5001 3.59147C8.37035 3.6926 6.47855 4.18043 4.91394 5.73908C3.34934 7.29774 2.86747 9.18954 2.76038 11.3252C2.63545 13.5264 2.63545 20.1239 2.76038 22.3251C2.86152 24.4608 3.34934 26.3526 4.91394 27.9112C6.47855 29.4699 8.3644 29.9577 10.5001 30.0648C12.7013 30.1897 19.2988 30.1897 21.4999 30.0648C23.6356 29.9637 25.5274 29.4758 27.0861 27.9112C28.6447 26.3526 29.1326 24.4608 29.2397 22.3251C29.3646 20.1239 29.3646 13.5324 29.2397 11.3312ZM26.396 24.6868C25.932 25.8529 25.0337 26.7512 23.8617 27.2211C22.1067 27.9172 17.9424 27.7566 16.003 27.7566C14.0636 27.7566 9.89331 27.9112 8.14428 27.2211C6.97827 26.7571 6.07996 25.8588 5.60999 24.6868C4.91394 22.9319 5.07457 18.7675 5.07457 16.8281C5.07457 14.8887 4.91989 10.7184 5.60999 8.96942C6.07401 7.80341 6.97232 6.9051 8.14428 6.43512C9.89926 5.73908 14.0636 5.89971 16.003 5.89971C17.9424 5.89971 22.1127 5.74503 23.8617 6.43512C25.0277 6.89915 25.926 7.79746 26.396 8.96942C27.092 10.7244 26.9314 14.8887 26.9314 16.8281C26.9314 18.7675 27.092 22.9378 26.396 24.6868Z" fill="#333333"/>
</g>
</svg>
