<svg width="32" height="33" viewBox="0 0 32 33" fill="none" xmlns="http://www.w3.org/2000/svg">
<g id="Icon/facebook">
<path id="Vector" d="M26.4762 3.4948H5.52383C4.76607 3.4948 4.03934 3.79582 3.50352 4.33163C2.96771 4.86745 2.66669 5.59418 2.66669 6.35194L2.66669 27.3043C2.66669 28.0621 2.96771 28.7888 3.50352 29.3246C4.03934 29.8604 4.76607 30.1615 5.52383 30.1615H13.6935V21.0954H9.94347V16.8281H13.6935V13.5757C13.6935 9.87634 15.8959 7.83289 19.2691 7.83289C20.8845 7.83289 22.5738 8.12099 22.5738 8.12099V11.7519H20.7125C18.8786 11.7519 18.3066 12.89 18.3066 14.0573V16.8281H22.4006L21.7459 21.0954H18.3066V30.1615H26.4762C27.234 30.1615 27.9607 29.8604 28.4965 29.3246C29.0323 28.7888 29.3334 28.0621 29.3334 27.3043V6.35194C29.3334 5.59418 29.0323 4.86745 28.4965 4.33163C27.9607 3.79582 27.234 3.4948 26.4762 3.4948Z" fill="#333333"/>
</g>
</svg>
