<svg width="48" height="48" viewBox="0 0 48 48" fill="none" xmlns="http://www.w3.org/2000/svg">
<g id="icon/bell-circle">
<path id="bell.badge.fill" d="M11.9464 33.3666H36.0385C37.5904 33.3666 38.5396 32.5228 38.5396 31.2572C38.5396 29.6601 37.0932 28.289 35.7372 26.9933C34.7729 26.029 34.4715 24.0853 34.3359 22.3978C34.2907 21.4185 34.2154 20.4843 34.0949 19.5954C33.2963 19.9269 32.4224 20.1227 31.5033 20.1227C27.4955 20.1227 24.1959 16.8231 24.1959 12.8002C24.1959 10.947 24.904 9.24438 26.0491 7.96369C25.4615 7.64729 24.7533 7.45142 23.9849 7.45142C21.7701 7.45142 20.1278 8.98825 19.495 10.9771C15.6077 12.3783 13.9805 16.2656 13.7545 21.7801C13.5586 23.784 13.3025 25.9536 12.2478 26.9933C10.8917 28.289 9.44531 29.6601 9.44531 31.2572C9.44531 32.5228 10.3945 33.3666 11.9464 33.3666ZM31.5184 17.9983C34.351 17.9983 36.7165 15.6478 36.7165 12.8002C36.7165 9.95253 34.351 7.60209 31.5184 7.60209C28.6708 7.60209 26.3203 9.95253 26.3203 12.8002C26.3203 15.6478 28.6708 17.9983 31.5184 17.9983ZM24 39.5742C26.6669 39.5742 28.6105 37.6607 28.8064 35.476H19.1786C19.3744 37.6607 21.3181 39.5742 24 39.5742Z" fill="#333333"/>
</g>
</svg>
