<svg width="48" height="48" viewBox="0 0 48 48" fill="none" xmlns="http://www.w3.org/2000/svg">
<g id="icon/box-arrow.up">
<path id="tray.and.arrow.up.fill" d="M24 25.6976C24.7835 25.6976 25.4163 25.0648 25.4163 24.3115V9.83214L25.2957 7.60223L26.2299 8.70211L28.3393 10.9471C28.5803 11.2183 28.9269 11.3539 29.2734 11.3539C29.9665 11.3539 30.539 10.8567 30.539 10.1485C30.539 9.77187 30.3884 9.50066 30.1322 9.24452L25.0848 4.37789C24.7081 4.01629 24.3767 3.89575 24 3.89575C23.6384 3.89575 23.2918 4.01629 22.9302 4.37789L17.8677 9.24452C17.6116 9.50066 17.476 9.77187 17.476 10.1485C17.476 10.8567 18.0335 11.3539 18.7265 11.3539C19.0731 11.3539 19.4347 11.2183 19.6758 10.9471L21.7701 8.70211L22.7042 7.58716L22.5988 9.83214V24.3115C22.5988 25.0648 23.2316 25.6976 24 25.6976ZM11.1027 39.4086H36.8822C40.1518 39.4086 41.8543 37.7211 41.8543 34.4968V26.3455C41.8543 24.8238 41.6886 24.1005 40.9654 23.1212L36.1741 16.778C34.351 14.3221 33.5072 13.8249 30.7952 13.8249H28.2037V16.326H30.9007C31.9101 16.326 32.5882 16.5369 33.3415 17.5314L38.2835 24.206C38.7957 24.884 38.6149 25.1703 37.8465 25.1703H28.8515C27.9777 25.1703 27.5859 25.788 27.5859 26.4359V26.4962C27.5859 28.259 26.2148 30.1424 24 30.1424C21.7851 30.1424 20.414 28.259 20.414 26.4962V26.4359C20.414 25.788 20.0223 25.1703 19.1484 25.1703H10.1534C9.36996 25.1703 9.23436 24.8388 9.70143 24.206L14.6283 17.5615C15.3967 16.552 16.0748 16.326 17.0993 16.326H19.7963V13.8249H17.2048C14.4777 13.8249 13.664 14.3221 11.7957 16.8081L7.01951 23.1212C6.31137 24.1005 6.14563 24.8238 6.14563 26.3455V34.4968C6.14563 37.7211 7.8482 39.4086 11.1027 39.4086Z" fill="#333333"/>
</g>
</svg>
