<svg width="24" height="24" viewBox="0 0 24 24" fill="none" xmlns="http://www.w3.org/2000/svg">
<g id="keyboard">
<path id="keyboard_2" d="M4.87332 17.8058H19.1191C20.7464 17.8058 21.5977 16.962 21.5977 15.3499V8.04991C21.5977 6.43774 20.7464 5.59399 19.1191 5.59399H4.87332C3.23856 5.59399 2.39481 6.43774 2.39481 8.04991V15.3499C2.39481 16.962 3.23856 17.8058 4.87332 17.8058ZM4.97126 16.2991C4.27818 16.2991 3.89397 15.9375 3.89397 15.2143V8.18551C3.89397 7.45476 4.27818 7.09316 4.97126 7.09316H19.0212C19.7143 7.09316 20.0985 7.45476 20.0985 8.18551V15.2143C20.0985 15.9375 19.7143 16.2991 19.0212 16.2991H4.97126ZM5.69447 10.0011H6.38755C6.60602 10.0011 6.74163 9.86548 6.74163 9.64701V8.95393C6.74163 8.73546 6.60602 8.59985 6.38755 8.59985H5.69447C5.476 8.59985 5.3404 8.73546 5.3404 8.95393V9.64701C5.3404 9.86548 5.476 10.0011 5.69447 10.0011ZM8.07505 10.0011H8.76813C8.9866 10.0011 9.12221 9.86548 9.12221 9.64701V8.95393C9.12221 8.73546 8.9866 8.59985 8.76813 8.59985H8.07505C7.85658 8.59985 7.72098 8.73546 7.72098 8.95393V9.64701C7.72098 9.86548 7.85658 10.0011 8.07505 10.0011ZM10.4481 10.0011H11.1412C11.3596 10.0011 11.4953 9.86548 11.4953 9.64701V8.95393C11.4953 8.73546 11.3596 8.59985 11.1412 8.59985H10.4481C10.2296 8.59985 10.094 8.73546 10.094 8.95393V9.64701C10.094 9.86548 10.2296 10.0011 10.4481 10.0011ZM12.8287 10.0011H13.5218C13.7402 10.0011 13.8758 9.86548 13.8758 9.64701V8.95393C13.8758 8.73546 13.7402 8.59985 13.5218 8.59985H12.8287C12.6102 8.59985 12.4746 8.73546 12.4746 8.95393V9.64701C12.4746 9.86548 12.6102 10.0011 12.8287 10.0011ZM15.2243 10.0011H15.8948C16.1133 10.0011 16.2489 9.86548 16.2489 9.64701V8.95393C16.2489 8.73546 16.1133 8.59985 15.8948 8.59985H15.2243C14.9908 8.59985 14.8552 8.73546 14.8552 8.95393V9.64701C14.8552 9.86548 14.9908 10.0011 15.2243 10.0011ZM17.5823 10.0011H18.2754C18.4939 10.0011 18.6295 9.86548 18.6295 9.64701V8.95393C18.6295 8.73546 18.4939 8.59985 18.2754 8.59985H17.5823C17.3638 8.59985 17.2282 8.73546 17.2282 8.95393V9.64701C17.2282 9.86548 17.3638 10.0011 17.5823 10.0011ZM5.69447 12.3967H6.38755C6.60602 12.3967 6.74163 12.2611 6.74163 12.0427V11.3496C6.74163 11.1311 6.60602 10.9955 6.38755 10.9955H5.69447C5.476 10.9955 5.3404 11.1311 5.3404 11.3496V12.0427C5.3404 12.2611 5.476 12.3967 5.69447 12.3967ZM8.07505 12.3967H8.76813C8.9866 12.3967 9.12221 12.2611 9.12221 12.0427V11.3496C9.12221 11.1311 8.9866 10.9955 8.76813 10.9955H8.07505C7.85658 10.9955 7.72098 11.1311 7.72098 11.3496V12.0427C7.72098 12.2611 7.85658 12.3967 8.07505 12.3967ZM10.4481 12.3967H11.1412C11.3596 12.3967 11.4953 12.2611 11.4953 12.0427V11.3496C11.4953 11.1311 11.3596 10.9955 11.1412 10.9955H10.4481C10.2296 10.9955 10.094 11.1311 10.094 11.3496V12.0427C10.094 12.2611 10.2296 12.3967 10.4481 12.3967ZM12.8287 12.3967H13.5218C13.7402 12.3967 13.8758 12.2611 13.8758 12.0427V11.3496C13.8758 11.1311 13.7402 10.9955 13.5218 10.9955H12.8287C12.6102 10.9955 12.4746 11.1311 12.4746 11.3496V12.0427C12.4746 12.2611 12.6102 12.3967 12.8287 12.3967ZM15.2243 12.3967H15.8948C16.1133 12.3967 16.2489 12.2611 16.2489 12.0427V11.3496C16.2489 11.1311 16.1133 10.9955 15.8948 10.9955H15.2243C14.9908 10.9955 14.8552 11.1311 14.8552 11.3496V12.0427C14.8552 12.2611 14.9908 12.3967 15.2243 12.3967ZM17.5823 12.3967H18.2754C18.4939 12.3967 18.6295 12.2611 18.6295 12.0427V11.3496C18.6295 11.1311 18.4939 10.9955 18.2754 10.9955H17.5823C17.3638 10.9955 17.2282 11.1311 17.2282 11.3496V12.0427C17.2282 12.2611 17.3638 12.3967 17.5823 12.3967ZM5.69447 14.7924H6.38755C6.60602 14.7924 6.74163 14.6568 6.74163 14.4383V13.7452C6.74163 13.5268 6.60602 13.3911 6.38755 13.3911H5.69447C5.476 13.3911 5.3404 13.5268 5.3404 13.7452V14.4383C5.3404 14.6568 5.476 14.7924 5.69447 14.7924ZM8.13532 14.7924H15.8345C16.0982 14.7924 16.2489 14.6417 16.2489 14.378V13.8055C16.2489 13.5418 16.0982 13.3911 15.8345 13.3911H8.13532C7.87165 13.3911 7.72098 13.5418 7.72098 13.8055V14.378C7.72098 14.6417 7.87165 14.7924 8.13532 14.7924ZM17.5823 14.7924H18.2754C18.4939 14.7924 18.6295 14.6568 18.6295 14.4383V13.7452C18.6295 13.5268 18.4939 13.3911 18.2754 13.3911H17.5823C17.3638 13.3911 17.2282 13.5268 17.2282 13.7452V14.4383C17.2282 14.6568 17.3638 14.7924 17.5823 14.7924Z" fill="#947E76"/>
</g>
</svg>
