<svg width="32" height="32" viewBox="0 0 32 32" fill="none" xmlns="http://www.w3.org/2000/svg">
<g id="icon/magnifyingglass">
<path id="magnifyingglass" d="M14.3226 21.7522C15.9197 21.7522 17.4164 21.2701 18.6619 20.4464L23.0615 24.856C23.3527 25.1373 23.7244 25.2779 24.1262 25.2779C24.9599 25.2779 25.5726 24.625 25.5726 23.8013C25.5726 23.4196 25.442 23.048 25.1608 22.7667L20.7914 18.3772C21.6954 17.0915 22.2277 15.5346 22.2277 13.8471C22.2277 9.49776 18.6719 5.94196 14.3226 5.94196C9.98333 5.94196 6.41748 9.49776 6.41748 13.8471C6.41748 18.1964 9.97328 21.7522 14.3226 21.7522ZM14.3226 19.6428C11.1385 19.6428 8.52686 17.0312 8.52686 13.8471C8.52686 10.6629 11.1385 8.05133 14.3226 8.05133C17.5068 8.05133 20.1184 10.6629 20.1184 13.8471C20.1184 17.0312 17.5068 19.6428 14.3226 19.6428Z" fill="#1C1C1E"/>
</g>
</svg>
